<mxfile host="Electron" modified="2024-03-14T21:32:15.680Z" agent="Mozilla/5.0 (Windows NT 10.0; Win64; x64) AppleWebKit/537.36 (KHTML, like Gecko) draw.io/24.0.4 Chrome/120.0.6099.109 Electron/28.1.0 Safari/537.36" etag="N_Hc4geHMwz3ltRHG_vK" version="24.0.4" type="device">
  <diagram name="PÃ¡gina-1" id="r-Dk_CSnG79D7M9TbqX1">
    <mxGraphModel dx="1258" dy="943" grid="1" gridSize="10" guides="1" tooltips="1" connect="1" arrows="1" fold="1" page="1" pageScale="1" pageWidth="827" pageHeight="1169" math="0" shadow="0">
      <root>
        <mxCell id="0" />
        <mxCell id="1" parent="0" />
        <mxCell id="3vJ3WMfgow5Yl6ggKS75-5" style="edgeStyle=orthogonalEdgeStyle;rounded=0;orthogonalLoop=1;jettySize=auto;html=1;exitX=0.5;exitY=0.5;exitDx=0;exitDy=0;exitPerimeter=0;entryX=0;entryY=0.5;entryDx=0;entryDy=0;endArrow=none;endFill=0;" edge="1" parent="1" source="3vJ3WMfgow5Yl6ggKS75-1" target="3vJ3WMfgow5Yl6ggKS75-2">
          <mxGeometry relative="1" as="geometry" />
        </mxCell>
        <mxCell id="3vJ3WMfgow5Yl6ggKS75-1" value="Secretario" style="shape=umlActor;verticalLabelPosition=bottom;verticalAlign=top;html=1;outlineConnect=0;" vertex="1" parent="1">
          <mxGeometry x="67.5" y="150" width="30" height="60" as="geometry" />
        </mxCell>
        <mxCell id="3vJ3WMfgow5Yl6ggKS75-6" style="edgeStyle=orthogonalEdgeStyle;rounded=0;orthogonalLoop=1;jettySize=auto;html=1;exitX=1;exitY=0.5;exitDx=0;exitDy=0;entryX=0;entryY=0.5;entryDx=0;entryDy=0;endArrow=none;endFill=0;" edge="1" parent="1" source="3vJ3WMfgow5Yl6ggKS75-2" target="3vJ3WMfgow5Yl6ggKS75-3">
          <mxGeometry relative="1" as="geometry" />
        </mxCell>
        <mxCell id="3vJ3WMfgow5Yl6ggKS75-2" value=":UI" style="rounded=0;whiteSpace=wrap;html=1;" vertex="1" parent="1">
          <mxGeometry x="277.5" y="160" width="90" height="40" as="geometry" />
        </mxCell>
        <mxCell id="3vJ3WMfgow5Yl6ggKS75-12" style="edgeStyle=orthogonalEdgeStyle;rounded=0;orthogonalLoop=1;jettySize=auto;html=1;exitX=0.5;exitY=1;exitDx=0;exitDy=0;entryX=0.5;entryY=0;entryDx=0;entryDy=0;endArrow=none;endFill=0;" edge="1" parent="1" source="3vJ3WMfgow5Yl6ggKS75-3" target="3vJ3WMfgow5Yl6ggKS75-4">
          <mxGeometry relative="1" as="geometry" />
        </mxCell>
        <mxCell id="3vJ3WMfgow5Yl6ggKS75-3" value=":GestorMedicos" style="rounded=0;whiteSpace=wrap;html=1;" vertex="1" parent="1">
          <mxGeometry x="547.5" y="160" width="90" height="40" as="geometry" />
        </mxCell>
        <mxCell id="3vJ3WMfgow5Yl6ggKS75-4" value=":Medico" style="rounded=0;whiteSpace=wrap;html=1;" vertex="1" parent="1">
          <mxGeometry x="547.5" y="300" width="90" height="40" as="geometry" />
        </mxCell>
        <mxCell id="3vJ3WMfgow5Yl6ggKS75-7" value="" style="endArrow=classic;html=1;rounded=0;" edge="1" parent="1">
          <mxGeometry width="50" height="50" relative="1" as="geometry">
            <mxPoint x="117.5" y="160" as="sourcePoint" />
            <mxPoint x="257.5" y="160" as="targetPoint" />
          </mxGeometry>
        </mxCell>
        <mxCell id="3vJ3WMfgow5Yl6ggKS75-8" value="1. BuscaEspMedico(NMedico)" style="text;html=1;align=center;verticalAlign=middle;resizable=0;points=[];autosize=1;strokeColor=none;fillColor=none;" vertex="1" parent="1">
          <mxGeometry x="97.5" y="120" width="180" height="30" as="geometry" />
        </mxCell>
        <mxCell id="3vJ3WMfgow5Yl6ggKS75-9" value="" style="endArrow=classic;html=1;rounded=0;" edge="1" parent="1">
          <mxGeometry width="50" height="50" relative="1" as="geometry">
            <mxPoint x="387.5" y="159" as="sourcePoint" />
            <mxPoint x="527.5" y="159" as="targetPoint" />
          </mxGeometry>
        </mxCell>
        <mxCell id="3vJ3WMfgow5Yl6ggKS75-10" value="2. BuscaNombMedico" style="text;html=1;align=center;verticalAlign=middle;resizable=0;points=[];autosize=1;strokeColor=none;fillColor=none;" vertex="1" parent="1">
          <mxGeometry x="392.5" y="120" width="140" height="30" as="geometry" />
        </mxCell>
        <mxCell id="3vJ3WMfgow5Yl6ggKS75-11" value="" style="endArrow=classic;html=1;rounded=0;" edge="1" parent="1">
          <mxGeometry width="50" height="50" relative="1" as="geometry">
            <mxPoint x="642.5" y="208" as="sourcePoint" />
            <mxPoint x="642.5" y="278" as="targetPoint" />
          </mxGeometry>
        </mxCell>
        <mxCell id="3vJ3WMfgow5Yl6ggKS75-13" value="4. ObtenerNombre()" style="text;html=1;align=center;verticalAlign=middle;resizable=0;points=[];autosize=1;strokeColor=none;fillColor=none;" vertex="1" parent="1">
          <mxGeometry x="642.5" y="226" width="130" height="30" as="geometry" />
        </mxCell>
        <mxCell id="3vJ3WMfgow5Yl6ggKS75-14" value="" style="endArrow=classic;html=1;rounded=0;" edge="1" parent="1">
          <mxGeometry width="50" height="50" relative="1" as="geometry">
            <mxPoint x="547.5" y="280" as="sourcePoint" />
            <mxPoint x="547.5" y="210" as="targetPoint" />
          </mxGeometry>
        </mxCell>
        <mxCell id="3vJ3WMfgow5Yl6ggKS75-15" value="5.Nombre" style="text;html=1;align=center;verticalAlign=middle;resizable=0;points=[];autosize=1;strokeColor=none;fillColor=none;" vertex="1" parent="1">
          <mxGeometry x="652.5" y="270" width="80" height="30" as="geometry" />
        </mxCell>
        <mxCell id="3vJ3WMfgow5Yl6ggKS75-16" value="" style="endArrow=classic;html=1;rounded=0;" edge="1" parent="1">
          <mxGeometry width="50" height="50" relative="1" as="geometry">
            <mxPoint x="527.5" y="200" as="sourcePoint" />
            <mxPoint x="387.5" y="200" as="targetPoint" />
          </mxGeometry>
        </mxCell>
        <mxCell id="3vJ3WMfgow5Yl6ggKS75-17" value="6. ObtenerEspecialidad" style="text;html=1;align=center;verticalAlign=middle;resizable=0;points=[];autosize=1;strokeColor=none;fillColor=none;" vertex="1" parent="1">
          <mxGeometry x="437.5" y="270" width="150" height="30" as="geometry" />
        </mxCell>
        <mxCell id="3vJ3WMfgow5Yl6ggKS75-18" value="" style="endArrow=classic;html=1;rounded=0;" edge="1" parent="1">
          <mxGeometry width="50" height="50" relative="1" as="geometry">
            <mxPoint x="257.5" y="199.17000000000002" as="sourcePoint" />
            <mxPoint x="117.5" y="199.17000000000002" as="targetPoint" />
          </mxGeometry>
        </mxCell>
        <mxCell id="3vJ3WMfgow5Yl6ggKS75-19" value="7.&lt;span style=&quot;background-color: initial;&quot;&gt;&amp;nbsp;Especialidad&lt;/span&gt;" style="text;html=1;align=center;verticalAlign=middle;resizable=0;points=[];autosize=1;strokeColor=none;fillColor=none;" vertex="1" parent="1">
          <mxGeometry x="427.5" y="226" width="100" height="30" as="geometry" />
        </mxCell>
        <mxCell id="3vJ3WMfgow5Yl6ggKS75-21" value="" style="shape=umlLifeline;perimeter=lifelinePerimeter;whiteSpace=wrap;html=1;container=1;dropTarget=0;collapsible=0;recursiveResize=0;outlineConnect=0;portConstraint=eastwest;newEdgeStyle={&quot;curved&quot;:0,&quot;rounded&quot;:0};participant=umlActor;" vertex="1" parent="1">
          <mxGeometry x="70" y="435" width="20" height="360" as="geometry" />
        </mxCell>
        <mxCell id="3vJ3WMfgow5Yl6ggKS75-30" value="" style="html=1;points=[[0,0,0,0,5],[0,1,0,0,-5],[1,0,0,0,5],[1,1,0,0,-5]];perimeter=orthogonalPerimeter;outlineConnect=0;targetShapes=umlLifeline;portConstraint=eastwest;newEdgeStyle={&quot;curved&quot;:0,&quot;rounded&quot;:0};" vertex="1" parent="3vJ3WMfgow5Yl6ggKS75-21">
          <mxGeometry x="5" y="75" width="10" height="285" as="geometry" />
        </mxCell>
        <mxCell id="3vJ3WMfgow5Yl6ggKS75-22" value="" style="shape=umlLifeline;perimeter=lifelinePerimeter;whiteSpace=wrap;html=1;container=1;dropTarget=0;collapsible=0;recursiveResize=0;outlineConnect=0;portConstraint=eastwest;newEdgeStyle={&quot;curved&quot;:0,&quot;rounded&quot;:0};participant=umlBoundary;" vertex="1" parent="1">
          <mxGeometry x="190" y="435" width="50" height="360" as="geometry" />
        </mxCell>
        <mxCell id="3vJ3WMfgow5Yl6ggKS75-33" value="" style="html=1;points=[[0,0,0,0,5],[0,1,0,0,-5],[1,0,0,0,5],[1,1,0,0,-5]];perimeter=orthogonalPerimeter;outlineConnect=0;targetShapes=umlLifeline;portConstraint=eastwest;newEdgeStyle={&quot;curved&quot;:0,&quot;rounded&quot;:0};" vertex="1" parent="3vJ3WMfgow5Yl6ggKS75-22">
          <mxGeometry x="20" y="73" width="10" height="287" as="geometry" />
        </mxCell>
        <mxCell id="3vJ3WMfgow5Yl6ggKS75-23" value="" style="shape=umlLifeline;perimeter=lifelinePerimeter;whiteSpace=wrap;html=1;container=1;dropTarget=0;collapsible=0;recursiveResize=0;outlineConnect=0;portConstraint=eastwest;newEdgeStyle={&quot;curved&quot;:0,&quot;rounded&quot;:0};participant=umlControl;" vertex="1" parent="1">
          <mxGeometry x="340" y="435" width="40" height="360" as="geometry" />
        </mxCell>
        <mxCell id="3vJ3WMfgow5Yl6ggKS75-32" value="" style="html=1;points=[[0,0,0,0,5],[0,1,0,0,-5],[1,0,0,0,5],[1,1,0,0,-5]];perimeter=orthogonalPerimeter;outlineConnect=0;targetShapes=umlLifeline;portConstraint=eastwest;newEdgeStyle={&quot;curved&quot;:0,&quot;rounded&quot;:0};" vertex="1" parent="3vJ3WMfgow5Yl6ggKS75-23">
          <mxGeometry x="15" y="73" width="10" height="287" as="geometry" />
        </mxCell>
        <mxCell id="3vJ3WMfgow5Yl6ggKS75-24" value="" style="shape=umlLifeline;perimeter=lifelinePerimeter;whiteSpace=wrap;html=1;container=1;dropTarget=0;collapsible=0;recursiveResize=0;outlineConnect=0;portConstraint=eastwest;newEdgeStyle={&quot;curved&quot;:0,&quot;rounded&quot;:0};participant=umlEntity;" vertex="1" parent="1">
          <mxGeometry x="480" y="435" width="40" height="360" as="geometry" />
        </mxCell>
        <mxCell id="3vJ3WMfgow5Yl6ggKS75-31" value="" style="html=1;points=[[0,0,0,0,5],[0,1,0,0,-5],[1,0,0,0,5],[1,1,0,0,-5]];perimeter=orthogonalPerimeter;outlineConnect=0;targetShapes=umlLifeline;portConstraint=eastwest;newEdgeStyle={&quot;curved&quot;:0,&quot;rounded&quot;:0};" vertex="1" parent="3vJ3WMfgow5Yl6ggKS75-24">
          <mxGeometry x="15" y="73" width="10" height="287" as="geometry" />
        </mxCell>
        <mxCell id="3vJ3WMfgow5Yl6ggKS75-25" value="Secretario" style="text;html=1;align=center;verticalAlign=middle;resizable=0;points=[];autosize=1;strokeColor=none;fillColor=none;" vertex="1" parent="1">
          <mxGeometry x="40" y="480" width="80" height="30" as="geometry" />
        </mxCell>
        <mxCell id="3vJ3WMfgow5Yl6ggKS75-26" value=":UI" style="text;html=1;align=center;verticalAlign=middle;resizable=0;points=[];autosize=1;strokeColor=none;fillColor=none;" vertex="1" parent="1">
          <mxGeometry x="195" y="480" width="40" height="30" as="geometry" />
        </mxCell>
        <mxCell id="3vJ3WMfgow5Yl6ggKS75-27" value=":GestorMedicos" style="text;html=1;align=center;verticalAlign=middle;resizable=0;points=[];autosize=1;strokeColor=none;fillColor=none;" vertex="1" parent="1">
          <mxGeometry x="305" y="478" width="110" height="30" as="geometry" />
        </mxCell>
        <mxCell id="3vJ3WMfgow5Yl6ggKS75-28" value=":Medico" style="text;html=1;align=center;verticalAlign=middle;resizable=0;points=[];autosize=1;strokeColor=none;fillColor=none;" vertex="1" parent="1">
          <mxGeometry x="465" y="478" width="70" height="30" as="geometry" />
        </mxCell>
        <mxCell id="3vJ3WMfgow5Yl6ggKS75-34" style="edgeStyle=orthogonalEdgeStyle;rounded=0;orthogonalLoop=1;jettySize=auto;html=1;exitX=0.5;exitY=0;exitDx=0;exitDy=0;entryX=1;entryY=0.5;entryDx=0;entryDy=0;curved=1;" edge="1" parent="1" source="3vJ3WMfgow5Yl6ggKS75-3" target="3vJ3WMfgow5Yl6ggKS75-3">
          <mxGeometry relative="1" as="geometry" />
        </mxCell>
        <mxCell id="3vJ3WMfgow5Yl6ggKS75-35" value="3. BuscaNombMedico" style="text;html=1;align=center;verticalAlign=middle;resizable=0;points=[];autosize=1;strokeColor=none;fillColor=none;" vertex="1" parent="1">
          <mxGeometry x="602.5" y="110" width="140" height="30" as="geometry" />
        </mxCell>
        <mxCell id="3vJ3WMfgow5Yl6ggKS75-36" value="" style="endArrow=classic;html=1;rounded=0;" edge="1" parent="1">
          <mxGeometry width="50" height="50" relative="1" as="geometry">
            <mxPoint x="617.5" y="276" as="sourcePoint" />
            <mxPoint x="617.5" y="206" as="targetPoint" />
          </mxGeometry>
        </mxCell>
        <mxCell id="3vJ3WMfgow5Yl6ggKS75-37" value="" style="endArrow=classic;html=1;rounded=0;" edge="1" parent="1">
          <mxGeometry width="50" height="50" relative="1" as="geometry">
            <mxPoint x="577.5" y="210" as="sourcePoint" />
            <mxPoint x="577.5" y="280" as="targetPoint" />
          </mxGeometry>
        </mxCell>
        <mxCell id="3vJ3WMfgow5Yl6ggKS75-38" value="8. Especialidad y Nombre" style="text;html=1;align=center;verticalAlign=middle;resizable=0;points=[];autosize=1;strokeColor=none;fillColor=none;" vertex="1" parent="1">
          <mxGeometry x="382.5" y="200" width="160" height="30" as="geometry" />
        </mxCell>
        <mxCell id="3vJ3WMfgow5Yl6ggKS75-39" value="9. Especialidad y Nombre" style="text;html=1;align=center;verticalAlign=middle;resizable=0;points=[];autosize=1;strokeColor=none;fillColor=none;" vertex="1" parent="1">
          <mxGeometry x="107.5" y="210" width="160" height="30" as="geometry" />
        </mxCell>
        <mxCell id="3vJ3WMfgow5Yl6ggKS75-40" value="" style="endArrow=classic;html=1;rounded=0;" edge="1" parent="1">
          <mxGeometry width="50" height="50" relative="1" as="geometry">
            <mxPoint x="85" y="530" as="sourcePoint" />
            <mxPoint x="210" y="530" as="targetPoint" />
          </mxGeometry>
        </mxCell>
        <mxCell id="3vJ3WMfgow5Yl6ggKS75-41" value="1. BuscaEspMedico(NMedico)" style="text;html=1;align=center;verticalAlign=middle;resizable=0;points=[];autosize=1;strokeColor=none;fillColor=none;fontSize=7;" vertex="1" parent="1">
          <mxGeometry x="90" y="510" width="120" height="20" as="geometry" />
        </mxCell>
        <mxCell id="3vJ3WMfgow5Yl6ggKS75-42" value="" style="endArrow=classic;html=1;rounded=0;" edge="1" parent="1">
          <mxGeometry width="50" height="50" relative="1" as="geometry">
            <mxPoint x="225" y="540" as="sourcePoint" />
            <mxPoint x="350" y="540" as="targetPoint" />
          </mxGeometry>
        </mxCell>
        <mxCell id="3vJ3WMfgow5Yl6ggKS75-43" value="2.BuscaNombMedico" style="text;html=1;align=center;verticalAlign=middle;resizable=0;points=[];autosize=1;strokeColor=none;fillColor=none;fontSize=7;" vertex="1" parent="1">
          <mxGeometry x="245" y="520" width="90" height="20" as="geometry" />
        </mxCell>
        <mxCell id="3vJ3WMfgow5Yl6ggKS75-46" value="loop" style="shape=umlFrame;whiteSpace=wrap;html=1;pointerEvents=0;width=50;height=20;" vertex="1" parent="1">
          <mxGeometry x="310" y="535" width="220" height="265" as="geometry" />
        </mxCell>
        <mxCell id="3vJ3WMfgow5Yl6ggKS75-47" value="&lt;font style=&quot;font-size: 8px;&quot;&gt;hasta encontrar NombMedico&lt;/font&gt;&lt;div&gt;&lt;font style=&quot;font-size: 8px;&quot;&gt;o no hayan mÃ¡s medicos&lt;/font&gt;&lt;/div&gt;" style="text;html=1;align=center;verticalAlign=middle;resizable=0;points=[];autosize=1;strokeColor=none;fillColor=none;" vertex="1" parent="1">
          <mxGeometry x="375" y="530" width="130" height="40" as="geometry" />
        </mxCell>
        <mxCell id="3vJ3WMfgow5Yl6ggKS75-50" value="" style="endArrow=classic;html=1;rounded=0;" edge="1" parent="1">
          <mxGeometry width="50" height="50" relative="1" as="geometry">
            <mxPoint x="365" y="585" as="sourcePoint" />
            <mxPoint x="490" y="585" as="targetPoint" />
          </mxGeometry>
        </mxCell>
        <mxCell id="3vJ3WMfgow5Yl6ggKS75-51" value="4. ObtenerNombre" style="text;html=1;align=center;verticalAlign=middle;resizable=0;points=[];autosize=1;strokeColor=none;fillColor=none;fontSize=7;" vertex="1" parent="1">
          <mxGeometry x="390" y="565" width="80" height="20" as="geometry" />
        </mxCell>
        <mxCell id="3vJ3WMfgow5Yl6ggKS75-52" value="" style="endArrow=classic;html=1;rounded=0;dashed=1;" edge="1" parent="1">
          <mxGeometry width="50" height="50" relative="1" as="geometry">
            <mxPoint x="368.75" y="615" as="sourcePoint" />
            <mxPoint x="369.25" y="615" as="targetPoint" />
            <Array as="points">
              <mxPoint x="491.25" y="615" />
            </Array>
          </mxGeometry>
        </mxCell>
        <mxCell id="3vJ3WMfgow5Yl6ggKS75-53" value="5. Nombre" style="text;html=1;align=center;verticalAlign=middle;resizable=0;points=[];autosize=1;strokeColor=none;fillColor=none;fontSize=7;" vertex="1" parent="1">
          <mxGeometry x="400" y="597.5" width="60" height="20" as="geometry" />
        </mxCell>
        <mxCell id="3vJ3WMfgow5Yl6ggKS75-54" value="" style="endArrow=classic;html=1;rounded=0;" edge="1" parent="1">
          <mxGeometry width="50" height="50" relative="1" as="geometry">
            <mxPoint x="369.38" y="690" as="sourcePoint" />
            <mxPoint x="494.38" y="690" as="targetPoint" />
          </mxGeometry>
        </mxCell>
        <mxCell id="3vJ3WMfgow5Yl6ggKS75-55" value="6. ObtenerEspecialidad" style="text;html=1;align=center;verticalAlign=middle;resizable=0;points=[];autosize=1;strokeColor=none;fillColor=none;fontSize=7;" vertex="1" parent="1">
          <mxGeometry x="384.38" y="670" width="100" height="20" as="geometry" />
        </mxCell>
        <mxCell id="3vJ3WMfgow5Yl6ggKS75-56" value="" style="endArrow=classic;html=1;rounded=0;dashed=1;" edge="1" parent="1">
          <mxGeometry width="50" height="50" relative="1" as="geometry">
            <mxPoint x="373.13" y="720" as="sourcePoint" />
            <mxPoint x="373.63" y="720" as="targetPoint" />
            <Array as="points">
              <mxPoint x="495.63" y="720" />
            </Array>
          </mxGeometry>
        </mxCell>
        <mxCell id="3vJ3WMfgow5Yl6ggKS75-57" value="7. Especialidad" style="text;html=1;align=center;verticalAlign=middle;resizable=0;points=[];autosize=1;strokeColor=none;fillColor=none;fontSize=7;" vertex="1" parent="1">
          <mxGeometry x="399.38" y="694.47" width="70" height="20" as="geometry" />
        </mxCell>
        <mxCell id="3vJ3WMfgow5Yl6ggKS75-58" value="alt" style="shape=umlFrame;whiteSpace=wrap;html=1;pointerEvents=0;width=50;height=20;" vertex="1" parent="1">
          <mxGeometry x="320" y="639.53" width="200" height="150.47" as="geometry" />
        </mxCell>
        <mxCell id="3vJ3WMfgow5Yl6ggKS75-59" value="" style="endArrow=none;dashed=1;html=1;rounded=0;entryX=1.005;entryY=0.64;entryDx=0;entryDy=0;entryPerimeter=0;" edge="1" parent="1">
          <mxGeometry width="50" height="50" relative="1" as="geometry">
            <mxPoint x="322.5" y="740" as="sourcePoint" />
            <mxPoint x="523.5" y="740.2308" as="targetPoint" />
          </mxGeometry>
        </mxCell>
        <mxCell id="3vJ3WMfgow5Yl6ggKS75-60" value="" style="endArrow=classic;html=1;rounded=0;dashed=1;" edge="1" parent="1">
          <mxGeometry width="50" height="50" relative="1" as="geometry">
            <mxPoint x="231.25" y="730" as="sourcePoint" />
            <mxPoint x="231.75" y="730" as="targetPoint" />
            <Array as="points">
              <mxPoint x="353.75" y="730" />
            </Array>
          </mxGeometry>
        </mxCell>
        <mxCell id="3vJ3WMfgow5Yl6ggKS75-61" value="8. Especialidad" style="text;html=1;align=center;verticalAlign=middle;resizable=0;points=[];autosize=1;strokeColor=none;fillColor=none;fontSize=7;" vertex="1" parent="1">
          <mxGeometry x="261.25" y="710" width="70" height="20" as="geometry" />
        </mxCell>
        <mxCell id="3vJ3WMfgow5Yl6ggKS75-62" value="" style="endArrow=classic;html=1;rounded=0;dashed=1;" edge="1" parent="1">
          <mxGeometry width="50" height="50" relative="1" as="geometry">
            <mxPoint x="90" y="734.47" as="sourcePoint" />
            <mxPoint x="90.5" y="734.47" as="targetPoint" />
            <Array as="points">
              <mxPoint x="212.5" y="734.47" />
            </Array>
          </mxGeometry>
        </mxCell>
        <mxCell id="3vJ3WMfgow5Yl6ggKS75-63" value="9. Especialidad" style="text;html=1;align=center;verticalAlign=middle;resizable=0;points=[];autosize=1;strokeColor=none;fillColor=none;fontSize=7;" vertex="1" parent="1">
          <mxGeometry x="120" y="714.47" width="70" height="20" as="geometry" />
        </mxCell>
        <mxCell id="3vJ3WMfgow5Yl6ggKS75-65" value="&lt;font style=&quot;font-size: 8px;&quot;&gt;Nombre = NombMedico&lt;/font&gt;" style="text;html=1;align=center;verticalAlign=middle;resizable=0;points=[];autosize=1;strokeColor=none;fillColor=none;" vertex="1" parent="1">
          <mxGeometry x="385" y="639.53" width="110" height="30" as="geometry" />
        </mxCell>
        <mxCell id="3vJ3WMfgow5Yl6ggKS75-66" value="&lt;span style=&quot;font-size: 8px;&quot;&gt;no hay mÃ¡s mÃ©dicos&lt;/span&gt;" style="text;html=1;align=center;verticalAlign=middle;resizable=0;points=[];autosize=1;strokeColor=none;fillColor=none;" vertex="1" parent="1">
          <mxGeometry x="370" y="730" width="100" height="30" as="geometry" />
        </mxCell>
        <mxCell id="3vJ3WMfgow5Yl6ggKS75-67" value="" style="endArrow=classic;html=1;rounded=0;dashed=1;" edge="1" parent="1">
          <mxGeometry width="50" height="50" relative="1" as="geometry">
            <mxPoint x="368.75" y="770" as="sourcePoint" />
            <mxPoint x="369.25" y="770" as="targetPoint" />
            <Array as="points">
              <mxPoint x="491.25" y="770" />
            </Array>
          </mxGeometry>
        </mxCell>
        <mxCell id="3vJ3WMfgow5Yl6ggKS75-68" value="6. &quot;Nombre no encontrado&quot;" style="text;html=1;align=center;verticalAlign=middle;resizable=0;points=[];autosize=1;strokeColor=none;fillColor=none;fontSize=7;" vertex="1" parent="1">
          <mxGeometry x="379.38" y="750" width="110" height="20" as="geometry" />
        </mxCell>
        <mxCell id="3vJ3WMfgow5Yl6ggKS75-69" value="" style="endArrow=classic;html=1;rounded=0;dashed=1;" edge="1" parent="1">
          <mxGeometry width="50" height="50" relative="1" as="geometry">
            <mxPoint x="228.75" y="780" as="sourcePoint" />
            <mxPoint x="229.25" y="780" as="targetPoint" />
            <Array as="points">
              <mxPoint x="351.25" y="780" />
            </Array>
          </mxGeometry>
        </mxCell>
        <mxCell id="3vJ3WMfgow5Yl6ggKS75-70" value="7. &quot;Nombre no encontrado&quot;" style="text;html=1;align=center;verticalAlign=middle;resizable=0;points=[];autosize=1;strokeColor=none;fillColor=none;fontSize=7;" vertex="1" parent="1">
          <mxGeometry x="239.38" y="760" width="110" height="20" as="geometry" />
        </mxCell>
        <mxCell id="3vJ3WMfgow5Yl6ggKS75-71" value="" style="endArrow=classic;html=1;rounded=0;dashed=1;" edge="1" parent="1">
          <mxGeometry width="50" height="50" relative="1" as="geometry">
            <mxPoint x="87.5" y="789.37" as="sourcePoint" />
            <mxPoint x="88" y="789.37" as="targetPoint" />
            <Array as="points">
              <mxPoint x="210" y="789.37" />
            </Array>
          </mxGeometry>
        </mxCell>
        <mxCell id="3vJ3WMfgow5Yl6ggKS75-72" value="8. &quot;Nombre no encontrado&quot;" style="text;html=1;align=center;verticalAlign=middle;resizable=0;points=[];autosize=1;strokeColor=none;fillColor=none;fontSize=7;" vertex="1" parent="1">
          <mxGeometry x="98.13" y="769.37" width="110" height="20" as="geometry" />
        </mxCell>
      </root>
    </mxGraphModel>
  </diagram>
</mxfile>
